<svg xmlns="http://www.w3.org/2000/svg" viewBox="0 0 700 900">
  <defs>
    <linearGradient id="wash" x1="0" y1="0" x2="1" y2="1">
      <stop offset="0" stop-color="#d6dfd2"/>
      <stop offset="0.55" stop-color="#aab9aa"/>
      <stop offset="1" stop-color="#819286"/>
    </linearGradient>
    <pattern id="draft" width="42" height="42" patternUnits="userSpaceOnUse">
      <path d="M0 0h42v42H0Z" fill="none" stroke="#26302b" stroke-opacity="0.07" stroke-width="1"/>
    </pattern>
  </defs>
  <rect width="700" height="900" fill="url(#wash)"/>
  <rect width="700" height="900" fill="url(#draft)"/>
  <g fill="none" stroke="#26302b" stroke-width="8">
    <path d="M74 718V338l62-48h86l45-92h165l47 92h87l62 48v380"/>
    <path d="M112 718V372h108v346M480 718V372h108v346"/>
    <path d="M244 718V480c0-82 42-142 106-142s106 60 106 142v238"/>
    <path d="M286 718V494c0-48 25-84 64-84s64 36 64 84v224"/>
    <path d="M75 338h552M112 442h108M480 442h108M100 604h126M474 604h126"/>
  </g>
  <g fill="#eee5d3" fill-opacity="0.32" stroke="#26302b" stroke-opacity="0.55" stroke-width="3">
    <path d="m132 270 41-62 41 62Z"/>
    <path d="m486 270 41-62 41 62Z"/>
    <circle cx="350" cy="265" r="42"/>
  </g>
  <g fill="none" stroke="#964536" stroke-width="4" stroke-dasharray="16 12" opacity="0.72">
    <path d="M50 750h600"/>
    <path d="M350 126v668"/>
    <circle cx="350" cy="536" r="244"/>
  </g>
  <g fill="#426a63" fill-opacity="0.62">
    <circle cx="75" cy="338" r="8"/><circle cx="627" cy="338" r="8"/>
    <circle cx="350" cy="198" r="8"/><circle cx="350" cy="750" r="8"/>
  </g>
  <path d="M42 816c138-31 235-7 325-18 106-12 183-5 290 16" fill="none" stroke="#426a63" stroke-width="8"/>
</svg>
